<svg width="18" height="17" viewBox="0 0 18 17" fill="none" xmlns="http://www.w3.org/2000/svg">
<path d="M13.0312 1.75C13.4863 1.74961 13.9368 1.84008 14.3565 2.01609C14.7761 2.1921 15.1564 2.45011 15.475 2.775C16.1315 3.44149 16.4995 4.33947 16.4995 5.275C16.4995 6.21053 16.1315 7.10851 15.475 7.775L8.99998 14.3312L2.52498 7.775C1.86847 7.10851 1.50047 6.21053 1.50047 5.275C1.50047 4.33947 1.86847 3.44149 2.52498 2.775C2.84379 2.45034 3.22409 2.19247 3.64368 2.01643C4.06326 1.84039 4.51372 1.74973 4.96873 1.74973C5.42375 1.74973 5.8742 1.84039 6.29379 2.01643C6.71337 2.19247 7.09367 2.45034 7.41248 2.775L8.99998 4.4L10.5812 2.7875C10.8989 2.45874 11.2796 2.19741 11.7005 2.01915C12.1215 1.84088 12.5741 1.74934 13.0312 1.75ZM13.0312 0.500002C12.4097 0.499475 11.7944 0.623036 11.2213 0.863441C10.6482 1.10384 10.1289 1.45625 9.69373 1.9L8.99998 2.6L8.30623 1.9C7.87058 1.45705 7.3511 1.10525 6.7781 0.865121C6.2051 0.624984 5.59002 0.501311 4.96873 0.501311C4.34744 0.501311 3.73237 0.624984 3.15936 0.865121C2.58636 1.10525 2.06689 1.45705 1.63123 1.9C0.744905 2.80226 0.248291 4.01647 0.248291 5.28125C0.248291 6.54602 0.744905 7.76023 1.63123 8.6625L8.99998 16.125L16.3687 8.6625C17.2551 7.76023 17.7517 6.54602 17.7517 5.28125C17.7517 4.01647 17.2551 2.80226 16.3687 1.9C15.9332 1.45681 15.4138 1.10477 14.8408 0.864415C14.2677 0.624052 13.6526 0.500173 13.0312 0.500002Z" fill="white"/>
</svg>
