<svg width="18" height="18" viewBox="0 0 18 18" fill="none" xmlns="http://www.w3.org/2000/svg">
<path d="M17.1249 16.2412L12.4048 11.5211C13.539 10.1595 14.1046 8.413 13.9839 6.64497C13.8632 4.87694 13.0655 3.22351 11.7568 2.02863C10.4481 0.833753 8.72909 0.189424 6.95741 0.229684C5.18572 0.269944 3.49776 0.991693 2.24467 2.24479C0.991571 3.49788 0.269822 5.18584 0.229562 6.95753C0.189302 8.72922 0.833631 10.4482 2.02851 11.7569C3.22339 13.0656 4.87682 13.8633 6.64485 13.984C8.41288 14.1047 10.1594 13.5391 11.521 12.4049L16.2411 17.125L17.1249 16.2412ZM1.4999 7.12502C1.4999 6.0125 1.8298 4.92497 2.44789 3.99994C3.06597 3.07492 3.94447 2.35395 4.97231 1.9282C6.00014 1.50246 7.13114 1.39107 8.22229 1.60811C9.31343 1.82515 10.3157 2.36088 11.1024 3.14755C11.889 3.93422 12.4248 4.9365 12.6418 6.02764C12.8589 7.11878 12.7475 8.24978 12.3217 9.27762C11.896 10.3054 11.175 11.1839 10.25 11.802C9.32496 12.4201 8.23742 12.75 7.1249 12.75C5.63357 12.7483 4.20379 12.1552 3.14925 11.1007C2.09472 10.0461 1.50156 8.61636 1.4999 7.12502Z" fill="white"/>
</svg>
